# xmcd CD database file
#
# Track frame offsets:
#	150
#	20080
#	39987
#
# Disc length: 645 seconds
#
# Revision: 0
# Processed by: cddbd v1.5.1PL0 Copyright (c) Steve Scherf et al.
# Submitted via: CDex 1.51
#
DISCID=1c028303
DTITLE=皆城総士 - terra
DYEAR=2004
DGENRE=Anime
TTITLE0=terra
TTITLE1=terra (off vocal version)
TTITLE2=terra INST Ver.
EXTD=YEAR: 2004
EXTT0=
EXTT1=
EXTT2=
PLAYORDER=
